<?xml version="1.0" standalone="no"?>
<!DOCTYPE svg PUBLIC "-//W3C//DTD SVG 20010904//EN"
 "http://www.w3.org/TR/2001/REC-SVG-20010904/DTD/svg10.dtd">
<svg version="1.0" xmlns="http://www.w3.org/2000/svg"
 width="736.000000pt" height="736.000000pt" viewBox="0 0 736.000000 736.000000"
 preserveAspectRatio="xMidYMid meet">
<metadata>
Created by potrace 1.14, written by Peter Selinger 2001-2017
</metadata>
<g transform="translate(0.000000,736.000000) scale(0.100000,-0.100000)"
fill="#000000" stroke="none">
<path d="M3385 7350 c-223 -21 -446 -59 -625 -106 -74 -20 -142 -38 -150 -39
-52 -12 -290 -101 -420 -158 -161 -71 -424 -210 -458 -244 -7 -7 -18 -13 -23
-13 -7 0 -151 -95 -184 -122 -5 -5 -55 -43 -110 -86 -55 -42 -113 -88 -130
-102 -119 -101 -318 -303 -435 -444 -8 -9 -22 -25 -30 -34 -8 -10 -43 -56 -78
-102 -34 -47 -66 -90 -70 -95 -5 -6 -25 -35 -45 -65 -20 -30 -40 -59 -45 -65
-8 -11 -71 -118 -124 -210 -56 -98 -195 -395 -204 -435 0 -3 -6 -18 -13 -35
-80 -195 -163 -513 -201 -775 -31 -213 -35 -278 -34 -570 0 -258 13 -419 49
-610 3 -14 7 -38 10 -55 25 -155 113 -463 177 -620 16 -38 29 -72 29 -75 3
-35 149 -331 233 -475 64 -109 69 -117 84 -133 6 -7 12 -17 12 -21 0 -13 159
-227 263 -355 110 -134 358 -376 517 -503 31 -25 129 -99 150 -113 12 -8 48
-34 81 -57 32 -24 63 -43 67 -43 5 0 17 -9 27 -20 10 -11 21 -20 25 -20 4 0
56 -28 116 -63 429 -249 903 -403 1444 -468 164 -20 710 -17 815 5 11 2 47 7
80 11 288 33 766 168 980 278 22 11 41 19 43 18 5 -4 217 103 281 142 36 21
72 42 80 46 9 3 42 23 73 44 31 20 60 37 63 37 3 0 11 5 18 10 7 6 35 27 62
47 77 56 169 127 175 133 3 3 23 18 45 35 102 75 372 336 461 445 16 19 35 41
42 49 8 8 32 39 55 70 23 31 47 61 52 67 6 6 18 22 27 35 10 13 38 53 63 87
115 158 277 454 365 667 5 11 18 43 30 70 12 28 23 55 24 60 2 6 6 17 9 25 12
29 68 195 72 212 2 10 15 59 29 110 39 145 63 261 86 418 31 212 35 277 35
565 -1 266 -10 372 -51 620 -33 198 -116 498 -184 665 -12 30 -23 60 -24 65
-1 6 -12 33 -25 60 -12 28 -30 68 -39 90 -23 58 -121 247 -176 340 -67 115
-70 119 -77 125 -3 3 -12 16 -18 29 -11 20 -122 175 -158 221 -6 8 -33 42 -59
75 -144 181 -380 418 -544 545 -25 19 -47 37 -50 40 -3 3 -32 26 -66 50 -60
45 -69 52 -151 110 -24 16 -47 30 -51 30 -5 0 -17 9 -27 20 -10 11 -21 20 -25
20 -4 0 -58 29 -119 65 -403 234 -857 386 -1361 455 -168 24 -607 35 -765 20z"/>
</g>
</svg>
